<svg width="85" height="158" viewBox="0 0 85 158" fill="none" xmlns="http://www.w3.org/2000/svg">
<path d="M60.9421 146.803C57.9205 147.694 54.9198 148.644 51.8836 149.486C47.1085 150.815 42.3125 152.083 37.5291 153.373C37.2645 153.45 36.9851 153.514 36.7183 153.6C35.6599 153.908 34.7917 154.428 34.847 155.693C34.8868 156.737 35.8613 157.496 37.3463 157.397C38.9332 157.289 40.5053 157.022 42.039 156.6C51.6942 153.959 61.3376 151.28 70.9692 148.566C73.9009 147.743 74.5148 145.779 72.2226 143.693C68.9231 140.66 65.4757 137.778 62.0003 134.935C59.6113 132.979 57.087 131.196 54.6165 129.346C54.1914 128.978 53.7371 128.646 53.2581 128.353C53.0303 128.186 52.7717 128.067 52.4972 128.003C52.2228 127.938 51.9382 127.928 51.6601 127.975C51.3821 128.022 51.1161 128.124 50.8779 128.275C50.6398 128.426 50.4342 128.623 50.2732 128.854C49.5761 129.908 50.0231 130.884 51.3178 131.843C55.4304 134.922 59.4979 138.072 63.5698 141.205C63.8915 141.547 64.1746 141.924 64.414 142.328C63.1751 142.557 61.896 142.398 60.7499 141.876C55.5663 139.998 50.331 138.216 45.2515 136.076C38.6854 133.309 32.4371 129.841 26.6151 125.733C15.2216 117.58 7.92883 106.738 5.64268 92.7859C4.86223 88.1972 5.00166 83.4992 6.05284 78.9649C7.10403 74.4306 9.04601 70.1504 11.7659 66.3732C12.196 65.7586 12.6558 65.1696 13.1281 64.6021C13.4292 64.3388 13.7537 64.1036 14.0976 63.8995C14.524 64.7798 14.9083 65.5768 15.2734 66.3779C18.8569 74.4358 25.3698 80.8301 33.4923 84.2649C43.2176 88.4347 52.605 87.504 61.0233 80.9295C63.8977 78.7773 66.0332 75.7858 67.1348 72.3681C68.2364 68.9504 68.2499 65.275 67.1734 61.8493C66.1616 58.8014 64.36 56.0762 61.952 53.9513C54.0562 46.6164 44.6411 44.7295 34.2979 46.5567C28.6042 47.6881 23.2481 50.1171 18.6458 53.655C18.1215 54.0369 17.5483 54.3971 17.0157 54.7406C16.8767 54.8227 16.6556 54.7659 16.2231 54.7906C16.1481 53.6018 16.02 52.4083 16.0089 51.2178C16.0108 43.8464 18.4153 36.6764 22.8581 30.7943C27.089 25.1763 32.2002 20.2791 37.9939 16.2921C48.3816 8.86424 59.8578 4.53598 72.7333 4.24863C75.8348 4.13979 78.9139 4.1884 81.8683 5.35634C82.9303 5.77457 83.9231 5.72168 84.5417 4.62061C84.6508 4.35713 84.7008 4.07296 84.6881 3.78808C84.6754 3.5032 84.6003 3.22458 84.4682 2.97187C84.3361 2.71915 84.1501 2.49849 83.9235 2.32547C83.6968 2.15244 83.4349 2.03127 83.1563 1.97048C81.1365 1.24934 79.0391 0.767639 76.9071 0.535254C67.7152 -0.251171 58.4698 1.20689 49.9661 4.78401C39.8457 9.07794 30.7708 15.5045 23.3604 23.6251C17.2334 30.2088 13.0115 37.8808 12.1358 47.0302C11.9267 50.2903 11.995 53.5623 12.3399 56.8108C12.4425 57.3937 12.4154 57.9921 12.2606 58.5634C12.1058 59.1347 11.8271 59.6649 11.4442 60.1163C-0.535174 74.2609 -1.83633 89.9282 5.50234 106.549C9.76517 116.228 16.8095 124.421 25.74 130.087C36.2379 137.001 47.6984 142.329 59.7514 145.898C60.1086 145.99 60.4767 146.039 60.8404 146.106L60.9421 146.803ZM19.3417 65.33C18.8345 64.1297 18.4441 63.2859 18.1179 62.4041C17.2896 60.1965 17.3394 60.0733 19.0978 58.5945C22.4671 55.7535 26.2976 53.51 30.4235 51.961C35.9513 49.7912 42.0123 49.3722 47.7861 50.7607C52.9673 51.8364 57.619 54.666 60.9566 58.7724C64.8316 63.6223 65.0359 69.5952 61.3623 74.6068C60.3223 76.0423 59.0641 77.3064 57.6334 78.353C54.8803 80.4109 51.6701 81.7719 48.2769 82.3199C44.8837 82.868 41.4082 82.5868 38.1472 81.5003C29.3785 78.8277 23.3639 72.9559 19.3077 65.3213L19.3417 65.33Z" fill="#5EA813"/>
</svg>
