<svg width="335" height="15" viewBox="0 0 335 15" fill="none" xmlns="http://www.w3.org/2000/svg">
<path d="M334.986 2.20027C333.337 2.07971 331.689 2.10983 330.04 2.08974C328.392 2.06965 326.758 2.02944 325.123 1.91893C321.471 1.6778 317.833 1.42664 314.195 1.20561C307.175 0.783639 300.14 0.442042 293.105 0.261198C286.654 0.0937501 280.202 0.00669793 273.75 0C272.073 0 270.41 0 268.733 0C262.338 0 255.943 0.110496 249.534 0.231059C234.57 0.522419 219.605 0.813786 204.655 1.30608C190.046 1.78833 175.437 2.31078 160.842 2.94373C153.665 3.25519 146.489 3.55659 139.312 3.94842C131.567 4.32016 123.808 4.64164 116.048 5.06361L68.0715 7.67581C54.2014 8.43937 40.3597 9.58471 26.5891 11.0315C17.7071 11.9558 8.83935 13.0408 0 14.2364C10.1468 14.6852 20.3078 14.9397 30.483 15C37.1338 15 43.7704 14.9397 50.3786 14.7488C54.642 14.6283 58.9053 14.4575 63.2397 14.2465C65.8688 14.1159 68.4978 13.9149 71.1269 13.7441L92.3015 12.3577C100.345 11.8252 108.389 11.2525 116.461 10.7703L141.359 9.2331C148.819 8.79103 156.28 8.42933 163.755 8.02746C171.23 7.62558 178.322 7.34427 185.612 7.02277C192.902 6.70127 200.321 6.44003 207.668 6.15872C215.015 5.87741 222.646 5.72673 230.122 5.52579C243.807 5.1641 257.478 5.03347 271.163 4.97319C278.766 4.97319 286.384 4.75216 293.987 4.56127C301.59 4.37038 308.979 4.13931 316.454 3.81781C319.51 3.6872 322.565 3.59677 325.606 3.37574C327.076 3.28335 328.537 3.13578 329.983 2.93367C331.262 2.74278 332.527 2.47152 333.82 2.31077C334.218 2.31077 334.602 2.24045 335 2.22035L334.986 2.20027Z" fill="#5EA813"/>
</svg>
