<svg width="144" height="160" viewBox="0 0 144 160" fill="none" xmlns="http://www.w3.org/2000/svg">
<path id="Vector" d="M133.526 129.941C131.984 133.181 130.509 136.448 128.915 139.663C126.411 144.722 123.841 149.754 121.299 154.791C121.163 155.074 121.005 155.36 120.875 155.651C120.331 156.783 120.112 157.914 121.228 158.829C122.143 159.589 123.527 159.339 124.572 158.005C125.687 156.577 126.656 155.041 127.464 153.42C132.564 143.224 137.624 133.01 142.644 122.778C144.174 119.666 142.976 117.653 139.464 118.011C134.383 118.503 129.319 119.236 124.266 120.022C120.791 120.561 117.36 121.346 113.913 122.035C113.278 122.116 112.651 122.249 112.038 122.432C111.724 122.498 111.426 122.627 111.163 122.811C110.899 122.994 110.675 123.228 110.503 123.5C110.331 123.771 110.215 124.074 110.162 124.391C110.109 124.707 110.12 125.032 110.194 125.344C110.558 126.736 111.725 127.099 113.523 126.73C119.261 125.584 125.024 124.529 130.776 123.457C131.311 123.445 131.846 123.491 132.371 123.596C131.622 124.82 130.516 125.784 129.201 126.359C123.669 129.327 118.178 132.412 112.501 135.092C105.162 138.557 97.4719 141.22 89.5624 143.034C73.987 146.498 59.2483 144.44 45.6788 135.773C41.1942 132.946 37.3161 129.257 34.27 124.918C31.2239 120.58 29.0705 115.679 27.935 110.501C27.7407 109.669 27.5908 108.831 27.4686 107.999C27.4742 107.544 27.5215 107.09 27.6098 106.643C28.6805 106.951 29.6485 107.231 30.6054 107.53C40.163 110.617 50.5366 109.955 59.6242 105.678C70.5537 100.6 76.9007 91.932 77.725 79.795C78.085 75.7213 77.1716 71.6363 75.1107 68.1039C73.0499 64.5716 69.9433 61.766 66.2198 60.0747C62.866 58.6156 59.1852 58.0718 55.5527 58.4985C43.3301 59.6183 34.5725 66.1681 28.259 76.3286C24.8901 82.017 22.8782 88.4057 22.3797 94.998C22.305 95.733 22.1748 96.493 22.0612 97.2058C22.0251 97.3861 21.8088 97.5304 21.5011 97.9159C20.4359 97.0757 19.3263 96.2772 18.3083 95.3815C12.0586 89.7761 7.80624 82.2863 6.19543 74.0471C4.6476 66.1883 4.38018 58.1309 5.40353 50.1868C7.00128 35.731 12.0551 22.7085 21.5995 11.5712C23.865 8.85836 26.247 6.28413 29.4833 4.66661C30.6453 4.08397 31.3552 3.20187 30.8918 1.84016C30.7513 1.54736 30.5483 1.28897 30.297 1.08317C30.0458 0.877382 29.7524 0.729218 29.4377 0.649137C29.1229 0.569057 28.7945 0.559009 28.4754 0.6197C28.1564 0.680391 27.8545 0.81035 27.5912 1.0004C25.4442 2.16502 23.4412 3.57748 21.6234 5.20885C13.9687 12.406 8.17677 21.3548 4.74566 31.2855C0.693491 43.1321 -0.755483 55.7135 0.497622 68.1711C1.423 78.3718 4.71959 87.7845 11.8128 95.4825C14.4185 98.1382 17.2451 100.568 20.2622 102.745C20.8345 103.101 21.3214 103.579 21.6882 104.144C22.055 104.71 22.2927 105.349 22.3845 106.017C25.2726 126.929 37.5698 139.943 57.2434 146.354C68.6921 150.097 80.9952 150.352 92.589 147.086C106.433 143.44 119.664 137.771 131.853 130.263C132.203 130.03 132.524 129.756 132.857 129.498L133.526 129.941ZM32.8096 103.283C31.4061 102.801 30.3937 102.491 29.3979 102.097C26.8961 101.121 26.8295 100.985 26.9122 98.3698C27.0643 93.3529 28.0737 88.3989 29.8967 83.7224C32.2589 77.3852 36.5112 71.9268 42.078 68.0861C46.9289 64.51 52.8648 62.7163 58.8845 63.0076C65.9431 63.4085 71.1636 67.7758 72.6209 74.701C73.0476 76.6743 73.1631 78.7022 72.9631 80.7111C72.6152 84.6102 71.329 88.3672 69.2142 91.6614C67.0994 94.9556 64.2189 97.6891 60.8185 99.6285C51.886 105.033 42.3342 105.67 32.7763 103.306L32.8096 103.283Z" fill="#5EA813"/>
</svg>
