<svg width="198" height="15" viewBox="0 0 198 15" fill="none" xmlns="http://www.w3.org/2000/svg">
<path d="M197.992 2.20027C197.017 2.07971 196.043 2.10983 195.069 2.08974C194.094 2.06965 193.128 2.02944 192.162 1.91893C190.004 1.6778 187.853 1.42664 185.703 1.20561C181.554 0.783639 177.396 0.442042 173.238 0.261198C169.425 0.0937501 165.612 0.00669793 161.798 0C160.807 0 159.825 0 158.833 0C155.054 0 151.274 0.110496 147.486 0.231059C138.641 0.522419 129.797 0.813786 120.96 1.30608C112.326 1.78833 103.691 2.31078 95.0649 2.94373C90.8232 3.25519 86.5814 3.55659 82.3397 3.94842C77.762 4.32016 73.1759 4.64164 68.5898 5.06361L40.2333 7.67581C32.0355 8.43937 23.8544 9.58471 15.7153 11.0315C10.4657 11.9558 5.22445 13.0408 0 14.2364C5.9972 14.6852 12.0028 14.9397 18.0168 15C21.9477 15 25.8703 14.9397 29.776 14.7488C32.2959 14.6283 34.8157 14.4575 37.3775 14.2465C38.9314 14.1159 40.4853 13.9149 42.0392 13.7441L54.5543 12.3577C59.3084 11.8252 64.0625 11.2525 68.8334 10.7703L83.5492 9.2331C87.9589 8.79103 92.3686 8.42933 96.7868 8.02746C101.205 7.62558 105.396 7.34427 109.705 7.02277C114.014 6.70127 118.398 6.44003 122.741 6.15872C127.083 5.87741 131.594 5.72673 136.012 5.52579C144.101 5.1641 152.181 5.03347 160.27 4.97319C164.763 4.97319 169.266 4.75216 173.759 4.56127C178.253 4.37038 182.621 4.13931 187.039 3.81781C188.845 3.6872 190.65 3.59677 192.448 3.37574C193.316 3.28335 194.18 3.13578 195.035 2.93368C195.791 2.74278 196.538 2.47152 197.303 2.31077C197.538 2.31077 197.765 2.24045 198 2.22035L197.992 2.20027Z" fill="#5EA813"/>
</svg>
