<svg width="278" height="15" viewBox="0 0 278 15" fill="none" xmlns="http://www.w3.org/2000/svg">
<path d="M277.988 2.20027C276.62 2.07971 275.252 2.10983 273.884 2.08974C272.516 2.06965 271.16 2.02944 269.804 1.91893C266.773 1.6778 263.754 1.42664 260.735 1.20561C254.909 0.783639 249.071 0.442042 243.234 0.261198C237.88 0.0937501 232.526 0.00669793 227.171 0C225.78 0 224.4 0 223.009 0C217.702 0 212.395 0.110496 207.076 0.231059C194.658 0.522419 182.24 0.813786 169.833 1.30608C157.71 1.78833 145.586 2.31078 133.475 2.94373C127.519 3.25519 121.564 3.55659 115.608 3.94842C109.181 4.32016 102.742 4.64164 96.3029 5.06361L56.4892 7.67581C44.9791 8.43937 33.4925 9.58471 22.065 11.0315C14.6943 11.9558 7.33534 13.0408 0 14.2364C8.42031 14.6852 16.8524 14.9397 25.2963 15C30.8155 15 36.3229 14.9397 41.8067 14.7488C45.3447 14.6283 48.8826 14.4575 52.4795 14.2465C54.6613 14.1159 56.843 13.9149 59.0247 13.7441L76.5965 12.3577C83.2714 11.8252 89.9463 11.2525 96.6449 10.7703L117.306 9.2331C123.498 8.79103 129.689 8.42933 135.893 8.02746C142.096 7.62558 147.98 7.34427 154.03 7.02277C160.08 6.70127 166.236 6.44003 172.333 6.15872C178.43 5.87741 184.763 5.72673 190.967 5.52579C202.323 5.1641 213.668 5.03347 225.025 4.97319C231.335 4.97319 237.656 4.75216 243.965 4.56127C250.274 4.37038 256.407 4.13931 262.61 3.81781C265.145 3.6872 267.681 3.59677 270.205 3.37574C271.424 3.28335 272.636 3.13578 273.837 2.93367C274.898 2.74278 275.948 2.47152 277.021 2.31077C277.351 2.31077 277.67 2.24045 278 2.22035L277.988 2.20027Z" fill="#5EA813"/>
</svg>
