<svg width="349" height="15" viewBox="0 0 349 15" fill="none" xmlns="http://www.w3.org/2000/svg">
<path d="M348.985 2.20027C347.268 2.07971 345.55 2.10983 343.833 2.08974C342.116 2.06965 340.413 2.02944 338.71 1.91893C334.906 1.6778 331.115 1.42664 327.325 1.20561C320.012 0.783639 312.683 0.442042 305.355 0.261198C298.633 0.0937501 291.912 0.00669793 285.19 0C283.443 0 281.711 0 279.964 0C273.302 0 266.639 0.110496 259.962 0.231059C244.373 0.522419 228.783 0.813786 213.208 1.30608C197.988 1.78833 182.769 2.31078 167.564 2.94373C160.087 3.25519 152.611 3.55659 145.134 3.94842C137.065 4.32016 128.982 4.64164 120.898 5.06361L70.9163 7.67581C56.4665 8.43937 42.0464 9.58471 27.7003 11.0315C18.4471 11.9558 9.20875 13.0408 0 14.2364C10.5708 14.6852 21.1565 14.9397 31.7569 15C38.6857 15 45.5996 14.9397 52.484 14.7488C56.9255 14.6283 61.367 14.4575 65.8826 14.2465C68.6215 14.1159 71.3604 13.9149 74.0994 13.7441L96.1589 12.3577C104.539 11.8252 112.918 11.2525 121.328 10.7703L147.266 9.2331C155.039 8.79103 162.811 8.42933 170.599 8.02746C178.386 7.62558 185.774 7.34427 193.369 7.02277C200.964 6.70127 208.692 6.44003 216.346 6.15872C224.001 5.87741 231.951 5.72673 239.739 5.52579C253.996 5.1641 268.238 5.03347 282.496 4.97319C290.416 4.97319 298.352 4.75216 306.273 4.56127C314.193 4.37038 321.892 4.13931 329.679 3.81781C332.862 3.6872 336.046 3.59677 339.214 3.37574C340.744 3.28335 342.266 3.13578 343.774 2.93367C345.106 2.74278 346.424 2.47152 347.771 2.31077C348.186 2.31077 348.585 2.24045 349 2.22035L348.985 2.20027Z" fill="#5EA813"/>
</svg>
