<svg width="33" height="26" viewBox="0 0 33 26" fill="none" xmlns="http://www.w3.org/2000/svg">
<path d="M30.268 0.187999C31.584 -0.187999 32.336 0 32.524 0.751998C32.7747 1.44133 32.6807 2.162 32.242 2.914C31.866 3.41533 31.3333 4.23 30.644 5.358C30.0173 6.486 29.3907 7.77067 28.764 9.212C28.1373 10.5907 27.73 12.0007 27.542 13.442C29.1713 13.6927 30.362 14.288 31.114 15.228C31.866 16.168 32.242 17.6093 32.242 19.552C32.242 21.7453 31.7093 23.312 30.644 24.252C29.6413 25.1293 27.9493 25.568 25.568 25.568C22.9987 25.568 21.056 25.0353 19.74 23.97C18.4867 22.842 17.86 21.0247 17.86 18.518C17.86 16.7007 18.236 14.7893 18.988 12.784C19.8027 10.7787 20.8367 8.89867 22.09 7.144C23.3433 5.32667 24.6907 3.82267 26.132 2.632C27.5733 1.37867 28.952 0.563998 30.268 0.187999ZM12.408 0.187999C13.724 -0.187999 14.476 0 14.664 0.751998C14.9147 1.44133 14.8207 2.162 14.382 2.914C14.006 3.41533 13.4733 4.23 12.784 5.358C12.1573 6.486 11.5307 7.77067 10.904 9.212C10.2773 10.5907 9.87 12.0007 9.682 13.442C11.3113 13.6927 12.502 14.288 13.254 15.228C14.006 16.168 14.382 17.6093 14.382 19.552C14.382 21.7453 13.8493 23.312 12.784 24.252C11.7813 25.1293 10.0893 25.568 7.708 25.568C5.13867 25.568 3.196 25.0353 1.88 23.97C0.626667 22.842 0 21.0247 0 18.518C0 16.7007 0.376 14.7893 1.128 12.784C1.94267 10.7787 2.97667 8.89867 4.23 7.144C5.48333 5.32667 6.83067 3.82267 8.272 2.632C9.71333 1.37867 11.092 0.563998 12.408 0.187999Z" fill="#5EA813"/>
</svg>
