<svg width="163" height="161" viewBox="0 0 163 161" fill="none" xmlns="http://www.w3.org/2000/svg">
<path d="M76 4L88 0L84 4H76Z" fill="#306000"/>
<path d="M4 83.5L0 87.5L4 78V83.5Z" fill="#306000"/>
<path d="M0 161V91.5591V87.4441L87.9872 0H162L0 161Z" fill="#5EA813"/>
<path d="M25.2836 113.217L15.3841 103.318L18.0004 100.702L27.8999 110.601L25.2836 113.217ZM26.7543 111.747L24.3502 109.342L29.5686 104.124L31.9728 106.528L26.7543 111.747ZM39.9735 98.5274L26.4536 92.2483L29.0558 89.6462L42.7453 95.7556L39.9735 98.5274ZM32.3509 106.15L26.2415 92.4605L28.8436 89.8583L35.1227 103.378L32.3509 106.15ZM32.5489 102.784L30.2437 100.479L37.0885 93.6343L39.3937 95.9394L32.5489 102.784ZM44.7527 93.7482L35.6735 84.6689L38.2898 82.0526L47.369 91.1319L44.7527 93.7482ZM34.4573 89.053L32.0531 86.6488L40.2555 78.4464L42.6597 80.8505L34.4573 89.053ZM51.2476 87.2533L41.3481 77.3538L43.9644 74.7375L53.8639 84.637L51.2476 87.2533ZM53.0861 85.4148L50.6819 83.0106L55.5751 78.1175L57.9793 80.5216L53.0861 85.4148ZM49.296 81.6247L46.9626 79.2913L50.9931 75.2608L53.3265 77.5942L49.296 81.6247ZM45.5908 77.9195L43.1866 75.5153L47.9808 70.7211L50.385 73.1253L45.5908 77.9195ZM63.1686 75.6718C62.7066 76.1337 62.1928 76.525 61.6271 76.8456C61.052 77.1567 60.4674 77.383 59.8735 77.5244C59.2889 77.6564 58.7374 77.6988 58.2188 77.6517C57.6908 77.5951 57.243 77.4301 56.8753 77.1567L58.7562 73.8333C59.0768 73.9841 59.4256 74.0407 59.8027 74.003C60.1704 73.9558 60.5287 73.7767 60.8775 73.4656C61.151 73.211 61.3112 72.9093 61.3584 72.5605C61.4149 72.2022 61.3207 71.9005 61.0755 71.6554C60.9153 71.4951 60.7031 71.4055 60.4391 71.3867C60.1752 71.349 59.8829 71.4244 59.5623 71.613L57.6956 72.7161C57.0545 73.0932 56.4133 73.3289 55.7722 73.4232C55.1406 73.508 54.5277 73.4514 53.9338 73.2535C53.3492 73.046 52.8118 72.6972 52.3216 72.2069C51.3505 71.2358 50.9168 70.161 51.0205 68.9825C51.1242 67.7852 51.7606 66.6019 52.9297 65.4329C53.5519 64.8106 54.1789 64.3439 54.8106 64.0328C55.4517 63.7122 56.1164 63.5567 56.8046 63.5661C57.4929 63.5567 58.2283 63.7169 59.0108 64.0469L57.1723 67.3845C56.9366 67.243 56.6255 67.177 56.2389 67.1865C55.8618 67.1865 55.5082 67.3515 55.1783 67.6815C54.8577 68.002 54.6786 68.3226 54.6409 68.6431C54.6126 68.9542 54.7351 69.2465 55.0086 69.5199C55.1783 69.6896 55.3998 69.7698 55.6732 69.7603C55.9372 69.7415 56.2342 69.6331 56.5642 69.4351L58.4451 68.3178C59.3879 67.7522 60.3496 67.5353 61.3301 67.6673C62.3012 67.7899 63.1403 68.2047 63.8474 68.9118C64.4979 69.5624 64.8986 70.2647 65.0495 71.019C65.2098 71.7638 65.1296 72.5322 64.8091 73.3242C64.4885 74.1161 63.9417 74.8987 63.1686 75.6718ZM70.2058 68.2951L61.1266 59.2158L63.7429 56.5995L72.8221 65.6788L70.2058 68.2951ZM59.9104 63.5999L57.5062 61.1957L65.7086 52.9933L68.1128 55.3975L59.9104 63.5999ZM80.653 57.8479L78.3478 55.5427L81.4025 52.488C81.7137 52.1769 81.8739 51.8469 81.8834 51.4981C81.9022 51.1398 81.7797 50.8287 81.5157 50.5647C81.2517 50.3007 80.9453 50.1829 80.5964 50.2112C80.257 50.23 79.9365 50.3997 79.6348 50.7203L76.5801 53.775L74.6284 51.8234L76.4104 50.1829C77.4003 49.1929 78.3714 48.4104 79.3236 47.8353C80.2664 47.2507 81.1715 46.9585 82.0389 46.9585C82.9063 46.9585 83.7266 47.345 84.4997 48.1181C85.1313 48.7498 85.5226 49.4333 85.6735 50.1687C85.8149 50.8947 85.7395 51.6301 85.4472 52.3749C85.1643 53.1103 84.6882 53.8127 84.0188 54.4821L80.653 57.8479ZM79.96 58.5409L70.0605 48.6414L72.6061 46.0958L82.5056 55.9953L79.96 58.5409ZM76.6366 54.0578L74.388 51.8092L77.1882 49.0091C77.4899 48.7074 77.6596 48.3868 77.6973 48.0474C77.735 47.708 77.6172 47.4016 77.3437 47.1282C77.0703 46.8548 76.7639 46.7369 76.4245 46.7746C76.0757 46.8029 75.7551 46.9726 75.4628 47.2837L72.6627 50.0839L70.6687 48.0898L73.6102 45.0634C74.2985 44.3752 75.015 43.8755 75.7598 43.5644C76.4952 43.2438 77.2306 43.1495 77.966 43.2815C78.7014 43.4135 79.4038 43.8142 80.0732 44.4836C80.554 44.9644 80.8086 45.6244 80.8368 46.4635C80.8651 47.2837 80.6624 48.1841 80.2287 49.1646C79.7856 50.1357 79.1068 51.0785 78.1923 51.9931L76.6366 54.0578ZM88.647 49.854L78.7475 39.9545L81.3638 37.3382L91.2632 47.2377L88.647 49.854ZM90.1177 48.3832L87.7136 45.979L92.932 40.7606L95.3362 43.1647L90.1177 48.3832ZM101.304 37.5366C100.267 38.5737 99.1305 39.2761 97.8955 39.6438C96.6604 39.9926 95.4347 40.0115 94.2185 39.7004C92.9929 39.3798 91.8851 38.7245 90.8951 37.7346C89.8957 36.7352 89.2405 35.6274 88.9294 34.4112C88.6088 33.1855 88.6277 31.9599 88.9859 30.7342C89.3348 29.4992 90.023 28.3678 91.0507 27.3401C92.0878 26.303 93.2238 25.6101 94.4589 25.2612C95.6846 24.903 96.9102 24.8841 98.1359 25.2047C99.3521 25.5158 100.46 26.171 101.459 27.1704C102.449 28.1604 103.104 29.2682 103.425 30.4938C103.746 31.7006 103.731 32.9216 103.383 34.1566C103.024 35.3823 102.331 36.5089 101.304 37.5366ZM98.8996 35.1324C99.4087 34.6233 99.7434 34.0624 99.9037 33.4495C100.054 32.8273 100.036 32.205 99.8471 31.5828C99.6585 30.9605 99.3003 30.3854 98.7723 29.8574C98.2443 29.3295 97.6645 28.9759 97.0328 28.7968C96.4011 28.5988 95.7741 28.5846 95.1519 28.7543C94.5296 28.9052 93.964 29.2352 93.4548 29.7443C92.9551 30.244 92.6252 30.8097 92.4649 31.4413C92.3046 32.0542 92.3188 32.6811 92.5073 33.3222C92.6959 33.9445 93.0541 34.5196 93.5821 35.0476C94.1101 35.5756 94.6899 35.9291 95.3216 36.1083C95.9533 36.2874 96.5802 36.3015 97.2025 36.1507C97.8248 35.981 98.3904 35.6416 98.8996 35.1324ZM112.474 26.3661C111.456 27.3843 110.339 28.0679 109.123 28.4167C107.897 28.7561 106.681 28.7655 105.474 28.445C104.258 28.115 103.15 27.4503 102.15 26.4509C101.151 25.4516 100.491 24.3485 100.171 23.1417C99.8406 21.9255 99.85 20.7092 100.199 19.493C100.538 18.2674 101.217 17.1454 102.235 16.1272C102.905 15.4578 103.588 14.9628 104.286 14.6423C104.993 14.3123 105.7 14.1237 106.407 14.0766C107.105 14.02 107.798 14.0719 108.486 14.2321L107.595 17.697C107.256 17.6215 106.902 17.6074 106.535 17.6545C106.176 17.6922 105.832 17.7912 105.502 17.9515C105.172 18.0929 104.885 18.2862 104.639 18.5313C104.149 19.0216 103.833 19.5731 103.692 20.186C103.541 20.7894 103.56 21.4022 103.749 22.0245C103.937 22.6467 104.3 23.2265 104.837 23.7639C105.365 24.2919 105.941 24.6596 106.563 24.867C107.185 25.0744 107.807 25.1027 108.43 24.9519C109.061 24.7916 109.641 24.4475 110.169 23.9195C110.546 23.5424 110.815 23.1417 110.975 22.7174C111.126 22.2837 111.164 21.8595 111.088 21.4446C111.003 21.0204 110.796 20.6432 110.466 20.3133L112.488 17.3575C113.488 18.3569 114.129 19.3846 114.412 20.4405C114.695 21.4965 114.662 22.5289 114.313 23.5377C113.973 24.537 113.36 25.4798 112.474 26.3661ZM108.557 22.8164L106.577 20.8365L111.272 16.1413L112.729 17.598L111.767 19.6061L108.557 22.8164Z" fill="white"/>
<path d="M4 157L0 161H4V157Z" fill="#306000"/>
<path d="M158 4L162 0L163 4H158Z" fill="#306000"/>
</svg>
