<svg width="18" height="22" viewBox="0 0 18 22" fill="none" xmlns="http://www.w3.org/2000/svg">
<path d="M9.00001 21.5L2.67301 14.0382C2.58509 13.9262 2.49809 13.8135 2.41201 13.7C1.33124 12.2763 0.747389 10.5374 0.750009 8.75C0.750009 6.56196 1.6192 4.46354 3.16638 2.91637C4.71355 1.36919 6.81197 0.5 9.00001 0.5C11.188 0.5 13.2865 1.36919 14.8336 2.91637C16.3808 4.46354 17.25 6.56196 17.25 8.75C17.2526 10.5366 16.669 12.2747 15.5888 13.6978L15.588 13.7C15.588 13.7 15.363 13.9955 15.3293 14.0353L9.00001 21.5ZM3.60901 12.7963C3.61051 12.7963 3.78451 13.0272 3.82426 13.0767L9.00001 19.181L14.1825 13.0685C14.2155 13.0272 14.391 12.7948 14.3918 12.794C15.2746 11.6308 15.7517 10.2103 15.75 8.75C15.75 6.95979 15.0388 5.2429 13.773 3.97703C12.5071 2.71116 10.7902 2 9.00001 2C7.2098 2 5.49291 2.71116 4.22704 3.97703C2.96117 5.2429 2.25001 6.95979 2.25001 8.75C2.24844 10.2112 2.72534 11.6326 3.60901 12.7963Z" fill="#BF8D5C"/>
</svg>
