<svg width="58" height="58" viewBox="0 0 58 58" fill="none" xmlns="http://www.w3.org/2000/svg">
<g id="Group 1000003241">
<circle id="Ellipse 4" cx="29" cy="28.9993" r="29" fill="white"/>
<path id="Vector" d="M33.4473 29.9575C31.5694 31.6275 30.1258 32.8737 28.7335 34.1696C28.0496 34.7501 27.4343 35.3994 26.8971 36.1076C26.3089 36.9813 26.1236 38.1906 27.2386 38.8325C28.1644 39.2558 29.1876 39.3975 30.1615 39.2374C30.7641 39.1584 31.2623 38.4854 31.7663 38.0504C34.3103 35.8287 36.8542 33.6069 39.3677 31.3697C41.8813 29.1324 41.881 26.4648 39.1264 24.36C35.8927 21.8687 32.4158 19.6523 29.0314 17.3305C28.5888 16.9189 28.0352 16.6352 27.4425 16.5164C26.4743 16.5608 25.2518 16.6276 24.656 17.1919C24.4552 17.3955 24.3083 17.6427 24.2261 17.9152C24.1439 18.1877 24.1285 18.4786 24.1811 18.7662C24.2338 19.0539 24.353 19.331 24.53 19.5769C24.7071 19.8229 24.9374 20.0314 25.2038 20.1871C26.7359 21.3364 28.4372 22.2552 30.5938 23.6071C29.8638 23.7752 29.116 23.8834 28.3583 23.9304C25.2673 23.8036 22.1442 23.5899 19.0788 23.488C18.2504 23.3831 17.422 23.4805 16.6723 23.7708C16.3467 23.9518 16.0699 24.1993 15.8602 24.4969C15.6504 24.7946 15.5125 25.1355 15.4554 25.4973C15.5114 25.8674 15.6567 26.2258 15.8796 26.544C16.1025 26.8622 16.3969 27.1315 16.7394 27.3304C17.7501 27.6894 18.8054 27.8886 19.8617 27.9197C23.5033 28.2933 27.2295 28.6516 30.9021 29.0647C31.7691 29.3003 32.6201 29.5988 33.4473 29.9575Z" fill="#222222"/>
</g>
</svg>
