<svg width="235" height="15" viewBox="0 0 235 15" fill="none" xmlns="http://www.w3.org/2000/svg">
<path id="Vector" d="M234.99 2.20027C233.834 2.07971 232.677 2.10983 231.521 2.08974C230.364 2.06965 229.218 2.02944 228.072 1.91893C225.509 1.6778 222.957 1.42664 220.405 1.20561C215.481 0.783639 210.546 0.442042 205.611 0.261198C201.085 0.0937501 196.559 0.00669793 192.033 0C190.857 0 189.691 0 188.514 0C184.028 0 179.542 0.110496 175.046 0.231059C164.549 0.522419 154.051 0.813786 143.564 1.30608C133.316 1.78833 123.068 2.31078 112.83 2.94373C107.795 3.25519 102.761 3.55659 97.7264 3.94842C92.2933 4.32016 86.8502 4.64164 81.4071 5.06361L47.7517 7.67581C38.0219 8.43937 28.312 9.58471 18.6521 11.0315C12.4214 11.9558 6.20074 13.0408 0 14.2364C7.11789 14.6852 14.2458 14.9397 21.3836 15C26.0491 15 30.7046 14.9397 35.3402 14.7488C38.3309 14.6283 41.3216 14.4575 44.3622 14.2465C46.2065 14.1159 48.0507 13.9149 49.895 13.7441L64.7488 12.3577C70.3913 11.8252 76.0338 11.2525 81.6962 10.7703L99.162 9.23309C104.396 8.79103 109.629 8.42933 114.873 8.02746C120.117 7.62558 125.091 7.34427 130.206 7.02277C135.32 6.70127 140.523 6.44003 145.677 6.15872C150.831 5.87741 156.185 5.72673 161.429 5.52579C171.029 5.1641 180.619 5.03347 190.219 4.97319C195.553 4.97319 200.896 4.75216 206.229 4.56127C211.563 4.37038 216.747 4.13931 221.99 3.81781C224.134 3.6872 226.277 3.59677 228.41 3.37574C229.441 3.28335 230.466 3.13578 231.481 2.93367C232.378 2.74278 233.265 2.47152 234.173 2.31077C234.452 2.31077 234.721 2.24045 235 2.22035L234.99 2.20027Z" fill="#5EA813"/>
</svg>
