<svg width="58" height="58" viewBox="0 0 58 58" fill="none" xmlns="http://www.w3.org/2000/svg">
<g id="Group 1000">
<circle id="Ellipse 4" cx="29" cy="29" r="29" transform="matrix(-1 -8.74228e-08 -8.74228e-08 1 58 -0.000732422)" fill="white"/>
<path id="Vector" d="M24.5527 29.9575C26.4306 31.6275 27.8742 32.8737 29.2665 34.1696C29.9504 34.7501 30.5657 35.3994 31.1029 36.1076C31.6911 36.9813 31.8764 38.1906 30.7614 38.8325C29.8356 39.2558 28.8124 39.3975 27.8385 39.2374C27.2359 39.1584 26.7377 38.4854 26.2337 38.0504C23.6897 35.8287 21.1458 33.6069 18.6323 31.3697C16.1187 29.1324 16.119 26.4648 18.8736 24.36C22.1073 21.8687 25.5842 19.6523 28.9686 17.3305C29.4112 16.9189 29.9648 16.6352 30.5575 16.5164C31.5257 16.5608 32.7482 16.6276 33.344 17.1919C33.5448 17.3955 33.6917 17.6427 33.7739 17.9152C33.8561 18.1877 33.8715 18.4786 33.8189 18.7662C33.7662 19.0539 33.647 19.331 33.47 19.5769C33.2929 19.8229 33.0626 20.0314 32.7962 20.1871C31.2641 21.3364 29.5628 22.2552 27.4062 23.6071C28.1362 23.7752 28.884 23.8834 29.6417 23.9304C32.7327 23.8036 35.8558 23.5899 38.9212 23.488C39.7496 23.3831 40.578 23.4805 41.3277 23.7708C41.6533 23.9518 41.9301 24.1993 42.1398 24.4969C42.3496 24.7946 42.4875 25.1355 42.5446 25.4973C42.4886 25.8674 42.3433 26.2258 42.1204 26.544C41.8975 26.8622 41.6031 27.1315 41.2606 27.3304C40.2499 27.6894 39.1946 27.8886 38.1383 27.9197C34.4967 28.2933 30.7705 28.6516 27.0979 29.0647C26.2309 29.3003 25.3799 29.5988 24.5527 29.9575Z" fill="#222222"/>
</g>
</svg>
