<svg width="26" height="26" viewBox="0 0 26 26" fill="none" xmlns="http://www.w3.org/2000/svg">
<circle cx="13" cy="13" r="13" fill="white"/>
<path d="M15.1431 12.1901C14.7353 13.2402 14.4142 14.0325 14.1236 14.8342C13.9694 15.2055 13.8567 15.5904 13.7872 15.9827C13.7311 16.4515 13.9044 16.9719 14.4804 17C14.9363 16.9796 15.3735 16.827 15.7293 16.564C15.9536 16.4093 16.0148 16.039 16.1269 15.7624C16.6876 14.356 17.2483 12.9496 17.7938 11.5432C18.3392 10.1368 17.7938 9.07261 16.2645 8.79602C14.4651 8.46317 12.625 8.28972 10.8001 8.05532C10.5394 7.98156 10.2605 7.98156 9.99979 8.05532C9.62258 8.27097 9.14853 8.54755 9.0262 8.89446C8.98771 9.01672 8.97963 9.14539 9.00255 9.27091C9.02547 9.39644 9.0788 9.51561 9.15859 9.61961C9.23839 9.7236 9.3426 9.80977 9.46351 9.8717C9.58442 9.93364 9.71891 9.96975 9.85706 9.97739C10.7032 10.1227 11.5698 10.1415 12.7065 10.2399C12.4497 10.4562 12.1734 10.6523 11.8807 10.8259C10.6217 11.4072 9.33203 11.9604 8.08825 12.5464C7.73635 12.6739 7.42576 12.8821 7.18602 13.1512C7.09314 13.29 7.03331 13.4453 7.01046 13.6069C6.98762 13.7685 7.00228 13.9327 7.05348 14.0888C7.15149 14.225 7.28272 14.3382 7.43669 14.4196C7.59066 14.501 7.76314 14.5482 7.94044 14.5576C8.41707 14.4942 8.87881 14.3579 9.30655 14.1544C10.8358 13.559 12.3956 12.9402 13.9452 12.3542C14.3393 12.271 14.7398 12.2161 15.1431 12.1901Z" fill="#222222"/>
</svg>
