<svg width="346" height="15" viewBox="0 0 346 15" fill="none" xmlns="http://www.w3.org/2000/svg">
<path d="M345.985 2.20027C344.283 2.07971 342.58 2.10983 340.877 2.08974C339.175 2.06965 337.487 2.02944 335.799 1.91893C332.027 1.6778 328.269 1.42664 324.512 1.20561C317.261 0.783639 309.995 0.442042 302.73 0.261198C296.066 0.0937501 289.402 0.00669793 282.739 0C281.007 0 279.289 0 277.557 0C270.952 0 264.347 0.110496 257.728 0.231059C242.272 0.522419 226.816 0.813786 211.375 1.30608C196.286 1.78833 181.198 2.31078 166.123 2.94373C158.711 3.25519 151.299 3.55659 143.887 3.94842C135.887 4.32016 127.873 4.64164 119.859 5.06361L70.3067 7.67581C55.9812 8.43937 41.685 9.58471 27.4622 11.0315C18.2885 11.9558 9.1296 13.0408 0 14.2364C10.48 14.6852 20.9746 14.9397 31.4839 15C38.3531 15 45.2077 14.9397 52.0328 14.7488C56.4362 14.6283 60.8395 14.4575 65.3162 14.2465C68.0316 14.1159 70.747 13.9149 73.4624 13.7441L95.3323 12.3577C103.64 11.8252 111.948 11.2525 120.285 10.7703L146 9.2331C153.706 8.79103 161.412 8.42933 169.132 8.02746C176.853 7.62558 184.177 7.34427 191.707 7.02277C199.237 6.70127 206.898 6.44003 214.487 6.15872C222.075 5.87741 229.957 5.72673 237.678 5.52579C251.813 5.1641 265.933 5.03347 280.067 4.97319C287.92 4.97319 295.787 4.75216 303.64 4.56127C311.492 4.37038 319.125 4.13931 326.845 3.81781C330.001 3.6872 333.157 3.59677 336.298 3.37574C337.815 3.28335 339.324 3.13578 340.819 2.93368C342.14 2.74278 343.446 2.47152 344.782 2.31077C345.193 2.31077 345.589 2.24045 346 2.22035L345.985 2.20027Z" fill="#5EA813"/>
</svg>
